<svg height="512pt" viewBox="0 0 512 512" width="512pt" xmlns="http://www.w3.org/2000/svg"><path fill="#607D8B" d="m372 256c0-32.539062-13.472656-61.984375-35.125-83.070312 6.417969-11.9375 14.179688-23.050782 23.070312-33.144532 31.925782 28.585938 52.054688 70.089844 52.054688 116.214844s-20.128906 87.628906-52.054688 116.214844c-8.890624-10.09375-16.652343-21.207032-23.070312-33.144532 21.652344-21.085937 35.125-50.53125 35.125-83.070312zm120-216c-119.101562 0-216 96.898438-216 216s96.898438 216 216 216h20v40h-20c-68.378906 0-132.667969-26.628906-181.019531-74.980469-8.84375-8.84375-16.953125-18.226562-24.3125-28.0625-9.921875 1.984375-20.171875 3.042969-30.667969 3.042969-86.019531 0-156-69.980469-156-156s69.980469-156 156-156c10.496094 0 20.746094 1.058594 30.667969 3.042969 7.359375-9.835938 15.46875-19.21875 24.3125-28.0625 48.351562-48.351563 112.640625-74.980469 181.019531-74.980469h20v40zm-228.472656 331.746094c-17.996094-35.429688-27.527344-74.855469-27.527344-115.746094s9.53125-80.316406 27.527344-115.746094c-2.488282-.160156-4.996094-.253906-7.527344-.253906-63.964844 0-116 52.039062-116 116s52.035156 116 116 116c2.53125 0 5.039062-.089844 7.527344-.253906zm12.472656-371.746094h-40v60h40zm-216 236h-60v40h60zm176 276h40v-60h-40zm-60.691406-435.734375-30.003906-51.960937-34.640626 20.003906 30.003907 51.957031zm-148.214844 63.378906 51.207031 31.273438 20.847657-34.136719-51.203126-31.273438zm-2.789062 227.046875 20 34.640625 51.960937-30-20-34.640625zm80.570312 96.90625 34.074219 20.953125 31.425781-51.113281-34.074219-20.949219zm0 0"/></svg>