<svg height="512pt" viewBox="0 0 512 512" width="512pt" xmlns="http://www.w3.org/2000/svg"><path fill="#37474F" d="m437.019531 74.980469c-48.351562-48.351563-112.640625-74.980469-181.019531-74.980469s-132.667969 26.628906-181.019531 74.980469c-48.351563 48.351562-74.980469 112.640625-74.980469 181.019531s26.628906 132.667969 74.980469 181.019531c48.351562 48.351563 112.640625 74.980469 181.019531 74.980469s132.667969-26.628906 181.019531-74.980469c48.351563-48.351562 74.980469-112.640625 74.980469-181.019531s-26.628906-132.667969-74.980469-181.019531zm-181.019531 397.019531c-119.101562 0-216-96.898438-216-216 0-48.847656 16.308594-93.953125 43.753906-130.179688-3.476562 16.914063-5.253906 34.222657-5.253906 51.679688 0 68.378906 26.628906 132.667969 74.980469 181.019531 21.152343 21.152344 45.359375 38.144531 71.621093 50.566407 46.445313 21.96875 101.628907 16.03125 141.539063-16.320313.835937-.675781 1.664063-1.359375 2.484375-2.050781-11.394531 1.84375-22.96875 2.785156-34.625 2.785156-119.101562 0-216-96.894531-216-216 0-38.148438 10.035156-75.457031 29.050781-108.234375 31.890625-18.597656 68.945313-29.265625 108.449219-29.265625 119.101562 0 216 96.898438 216 216s-96.898438 216-216 216zm155-273c0 16.570312-13.429688 30-30 30s-30-13.429688-30-30 13.429688-30 30-30 30 13.429688 30 30zm-140 60c0 16.570312-13.429688 30-30 30s-30-13.429688-30-30 13.429688-30 30-30 30 13.429688 30 30zm19-131c0 22.089844-17.910156 40-40 40s-40-17.910156-40-40 17.910156-40 40-40 40 17.910156 40 40zm104 185c0 11.046875-8.953125 20-20 20s-20-8.953125-20-20 8.953125-20 20-20 20 8.953125 20 20zm0 0"/></svg>